<?xml version="1.0" standalone="no"?>
<!DOCTYPE svg PUBLIC "-//W3C//DTD SVG 20010904//EN"
 "http://www.w3.org/TR/2001/REC-SVG-20010904/DTD/svg10.dtd">
<svg version="1.0" xmlns="http://www.w3.org/2000/svg"
 width="512.000000pt" height="512.000000pt" viewBox="0 0 512.000000 512.000000"
 preserveAspectRatio="xMidYMid meet">
<g transform="translate(0.000000,512.000000) scale(0.100000,-0.100000)"
fill="#000000" stroke="none">
<path d="M0 2560 l0 -2560 2560 0 2560 0 0 2560 0 2560 -2560 0 -2560 0 0
-2560z m788 -1473 c91 -268 169 -484 172 -480 4 5 73 215 154 468 80 253 151
470 156 483 10 22 11 22 230 22 l220 0 0 -715 0 -715 -150 0 -150 0 -2 500 -3
499 -154 -447 c-85 -246 -163 -471 -173 -500 l-20 -53 -121 3 -122 3 -172 490
c-94 270 -174 495 -177 500 -2 6 -5 -216 -5 -492 l-1 -503 -145 0 -145 0 0
715 0 715 221 -2 221 -3 166 -488z m2007 470 c228 -65 372 -214 436 -453 29
-107 32 -332 5 -449 -42 -191 -155 -351 -301 -427 -138 -71 -138 -71 -562 -76
l-383 -3 0 709 c0 390 3 712 7 716 4 4 172 6 373 4 304 -4 375 -7 425 -21z"/>
<path d="M2310 860 l0 -450 143 0 c220 0 316 26 385 105 73 83 102 175 102
331 0 252 -78 392 -249 444 -51 16 -92 20 -222 20 l-159 0 0 -450z"/>
</g>
</svg>
